<?xml version="1.0" standalone="no"?>
<!DOCTYPE svg PUBLIC "-//W3C//DTD SVG 20010904//EN">
<svg version="1.0" xmlns="http://www.w3.org/2000/svg"
 width="1000.000000pt" height="1000.000000pt" viewBox="0 0 1000.000000 1000.000000"
 preserveAspectRatio="xMidYMid meet">

<g transform="translate(0.000000,1000.000000) scale(0.100000,-0.100000)"
fill="#000000" stroke="none">
<path d="M4881 9986 c-7 -8 -36 -25 -65 -39 -81 -39 -116 -99 -116 -203 0
-106 51 -178 163 -229 33 -15 57 -33 57 -42 0 -16 -291 -602 -354 -711 -20
-35 -36 -65 -36 -67 0 -1 -25 -44 -55 -96 -30 -52 -77 -139 -104 -194 -28 -56
-78 -136 -114 -180 -82 -102 -221 -235 -269 -258 -48 -23 -123 -21 -177 3
-155 71 -395 321 -644 672 -129 181 -309 457 -305 467 2 5 23 24 48 43 184
140 62 382 -178 354 -98 -12 -156 -58 -188 -149 -12 -35 -13 -49 -2 -92 18
-69 66 -115 153 -146 l69 -24 19 -90 c10 -49 22 -106 27 -125 5 -19 16 -66 25
-105 23 -102 35 -155 45 -195 5 -19 20 -82 34 -140 70 -293 107 -423 164 -575
16 -44 53 -143 82 -220 28 -77 56 -151 62 -165 6 -14 14 -34 18 -45 27 -72 46
-108 64 -121 18 -12 260 -14 1688 -14 1162 0 1674 3 1691 11 16 7 31 32 51 87
15 42 31 86 37 97 5 11 29 79 53 150 24 72 47 139 51 150 19 54 26 76 44 150
19 78 42 168 76 290 9 33 27 101 40 150 42 160 76 289 85 320 5 17 20 73 33
125 58 221 69 256 80 266 7 6 32 16 57 23 137 38 197 159 139 279 -75 153
-349 145 -420 -12 -38 -83 -11 -173 71 -234 25 -19 47 -39 49 -44 4 -11 -254
-400 -364 -548 -237 -320 -474 -554 -604 -598 -49 -17 -117 -15 -159 5 -93 44
-316 306 -398 468 -22 44 -82 153 -132 243 -125 222 -404 779 -400 799 2 9 22
23 45 30 54 18 131 87 154 138 22 47 25 150 7 192 -22 51 -59 92 -92 103 -18
6 -48 22 -66 35 -31 23 -43 25 -131 25 -71 0 -100 -4 -108 -14z"/>
<path d="M3798 9220 c-63 -19 -128 -98 -128 -155 0 -41 42 -105 86 -131 25
-15 44 -33 44 -43 0 -17 -124 -206 -223 -340 -26 -35 -47 -73 -47 -85 0 -32
28 -69 131 -172 119 -121 183 -165 246 -171 43 -4 55 0 109 35 61 40 170 155
199 211 29 58 23 74 -70 197 -90 117 -215 308 -215 327 0 9 15 23 33 31 80 34
120 132 83 204 -42 81 -151 121 -248 92z"/>
<path d="M5954 9212 c-52 -25 -94 -79 -101 -129 -6 -56 30 -122 85 -151 24
-14 42 -31 42 -41 0 -15 -118 -198 -213 -327 -65 -90 -49 -135 105 -295 90
-93 174 -149 226 -149 52 0 127 45 213 128 135 128 138 150 42 278 -103 136
-243 346 -243 365 0 10 20 29 45 43 107 63 107 200 -1 266 -50 32 -146 37
-200 12z"/>
<path d="M3300 6966 c0 -169 -3 -207 -15 -218 -8 -7 -41 -33 -72 -58 -54 -42
-316 -299 -338 -331 -5 -8 -26 -33 -45 -56 -19 -23 -45 -54 -57 -70 -13 -15
-34 -42 -48 -59 -14 -18 -25 -36 -25 -41 0 -6 -9 -18 -20 -28 -11 -10 -20 -24
-20 -30 0 -7 -6 -18 -14 -24 -8 -7 -24 -30 -35 -51 -28 -54 -45 -84 -51 -90
-10 -10 -100 -196 -100 -207 0 -6 -3 -13 -7 -15 -5 -1 -17 -28 -27 -58 -10
-30 -27 -73 -37 -94 -11 -22 -19 -46 -19 -53 0 -7 -4 -21 -9 -31 -5 -9 -15
-37 -21 -62 -7 -25 -15 -52 -18 -60 -2 -8 -6 -22 -8 -30 -2 -8 -8 -35 -14 -60
-7 -25 -14 -63 -17 -85 -3 -22 -9 -44 -14 -49 -5 -6 -9 -28 -9 -51 0 -23 -4
-45 -9 -51 -25 -26 -45 -425 -32 -626 16 -239 22 -292 32 -302 5 -6 9 -27 9
-47 0 -21 5 -41 10 -44 6 -3 10 -24 10 -45 0 -21 4 -41 9 -44 5 -3 12 -23 15
-43 3 -21 8 -47 11 -58 3 -11 8 -35 11 -53 4 -18 10 -35 15 -38 5 -3 9 -18 9
-35 0 -16 5 -29 10 -29 6 0 10 -7 10 -15 0 -15 4 -25 28 -72 7 -13 12 -28 12
-34 0 -10 7 -27 52 -129 27 -61 31 -68 63 -125 15 -27 44 -79 63 -115 19 -36
38 -66 43 -68 5 -2 9 -9 9 -16 0 -7 9 -21 20 -31 11 -10 20 -23 20 -30 0 -7 9
-20 20 -30 11 -10 20 -23 20 -30 0 -6 11 -22 25 -35 14 -13 25 -28 25 -33 0
-5 12 -24 28 -42 15 -18 54 -67 87 -110 33 -42 76 -97 95 -121 19 -24 51 -64
70 -89 19 -25 50 -63 68 -84 17 -21 32 -42 32 -46 0 -4 16 -26 35 -49 55 -63
77 -90 115 -141 19 -26 52 -66 73 -90 20 -23 37 -47 37 -52 0 -5 10 -18 21
-29 12 -10 32 -35 45 -54 13 -19 39 -55 58 -80 19 -24 32 -48 30 -52 -3 -5 2
-8 11 -8 8 0 19 -10 24 -23 5 -13 16 -29 25 -37 24 -19 57 -68 61 -88 1 -9 7
-16 13 -15 6 2 21 -12 34 -30 31 -44 47 -64 91 -112 20 -23 37 -46 37 -50 0
-4 12 -22 28 -40 15 -18 43 -53 62 -79 36 -48 83 -109 125 -161 64 -79 72 -91
68 -102 -3 -7 1 -13 7 -13 14 0 89 -80 90 -96 0 -5 16 -25 35 -44 19 -19 35
-39 35 -46 0 -6 7 -18 17 -25 15 -14 88 -105 108 -138 6 -8 17 -23 25 -31 29
-28 65 -85 62 -97 -2 -7 3 -13 11 -13 8 0 31 -23 53 -51 21 -28 56 -70 77 -94
20 -23 37 -46 37 -50 0 -4 12 -22 28 -40 29 -34 33 -40 102 -129 25 -31 62
-77 83 -100 20 -24 37 -46 37 -50 0 -4 6 -14 14 -21 12 -12 17 -11 37 9 13 12
40 44 59 70 19 27 52 67 73 91 20 23 37 45 37 49 0 14 75 96 88 96 7 0 12 6
10 13 -3 14 59 107 71 107 5 0 11 9 14 21 3 11 15 23 26 26 11 3 19 8 17 12
-3 4 11 27 30 51 19 25 45 61 58 80 13 19 33 44 45 54 11 11 21 24 21 31 0 7
9 20 21 31 12 10 49 55 82 99 34 44 66 85 71 91 6 7 27 33 46 58 19 26 49 64
65 85 17 21 48 62 70 91 22 29 56 72 75 95 19 23 44 55 55 71 11 15 31 42 45
58 14 17 28 36 32 41 4 6 25 31 45 56 21 26 52 63 68 84 17 20 32 42 34 48 2
7 18 29 35 49 17 20 51 62 76 94 25 31 50 62 55 68 6 6 37 46 70 90 58 76 76
99 140 182 16 22 41 53 55 70 14 16 36 45 50 64 14 19 43 55 65 81 22 27 54
66 70 88 17 22 45 57 62 78 18 21 33 42 33 47 0 5 15 26 33 47 17 21 52 63 77
95 25 31 50 62 55 68 17 19 69 89 90 120 11 16 27 39 35 51 43 63 70 105 70
110 0 6 40 66 50 75 3 3 25 43 48 89 24 47 51 99 61 115 10 17 22 42 26 56 4
14 14 29 21 35 7 5 22 44 34 85 12 41 28 82 35 90 7 8 17 28 21 44 4 16 13 41
20 55 8 14 14 35 14 46 0 11 7 43 16 70 19 58 32 112 43 175 5 25 16 74 26
110 15 54 18 111 18 345 1 264 -7 388 -32 515 -23 114 -35 161 -43 166 -4 3
-8 23 -8 44 0 21 -4 42 -10 45 -5 3 -10 18 -10 33 0 26 -42 168 -61 204 -5 10
-9 25 -9 33 0 8 -4 23 -9 33 -17 32 -51 112 -51 120 0 4 -26 60 -57 122 -31
63 -57 117 -58 120 0 3 -15 26 -33 52 -17 26 -32 49 -32 53 0 8 -107 164 -131
191 -11 11 -19 24 -19 28 0 12 -177 217 -243 283 -30 29 -188 171 -233 208
l-36 30 2 213 1 212 -1696 0 -1695 0 0 -204z m1920 -1246 l0 -350 350 0 350 0
0 -200 0 -200 -350 0 -350 0 0 -350 0 -350 -200 0 -200 0 0 350 0 350 -350 0
-350 0 0 200 0 200 350 0 350 0 0 350 0 350 200 0 200 0 0 -350z m-20 -2160
l0 -350 350 0 350 0 0 -200 0 -200 -350 0 -350 0 0 -350 0 -350 -200 0 -200 0
0 350 0 350 -350 0 -350 0 0 200 0 200 350 0 350 0 0 350 0 350 200 0 200 0 0
-350z"/>
</g>
</svg>
