<?xml version="1.0" encoding="UTF-8" standalone="no"?>
<!-- Created with Inkscape (http://www.inkscape.org/) -->

<svg
   width="512"
   height="512"
   viewBox="0 0 135.46667 135.46667"
   version="1.1"
   id="svg5"
   inkscape:version="1.1 (c68e22c387, 2021-05-23)"
   sodipodi:docname="gexplorer_inkscape.svg"
   inkscape:export-filename="C:\Users\super\Downloads\gexplorer\gexplorer_logo.png"
   inkscape:export-xdpi="384"
   inkscape:export-ydpi="384"
   xmlns:inkscape="http://www.inkscape.org/namespaces/inkscape"
   xmlns:sodipodi="http://sodipodi.sourceforge.net/DTD/sodipodi-0.dtd"
   xmlns="http://www.w3.org/2000/svg"
   xmlns:svg="http://www.w3.org/2000/svg">
  <sodipodi:namedview
     id="namedview7"
     pagecolor="#505050"
     bordercolor="#eeeeee"
     borderopacity="1"
     inkscape:pageshadow="0"
     inkscape:pageopacity="0"
     inkscape:pagecheckerboard="0"
     inkscape:document-units="px"
     showgrid="false"
     inkscape:object-paths="false"
     inkscape:snap-global="true"
     inkscape:snap-smooth-nodes="false"
     inkscape:zoom="0.8125"
     inkscape:cx="59.692308"
     inkscape:cy="203.69231"
     inkscape:window-width="1920"
     inkscape:window-height="1017"
     inkscape:window-x="-8"
     inkscape:window-y="-8"
     inkscape:window-maximized="1"
     inkscape:current-layer="layer1" />
  <defs
     id="defs2" />
  <g
     inkscape:label="Warstwa 1"
     inkscape:groupmode="layer"
     id="layer1"
     style="display:inline">
    <path
       id="path1298"
       style="fill:#c80000;stroke-width:2.09762;stroke-linejoin:round;fill-opacity:1"
       d="m 187.375,155.69141 c -43.79282,24.20491 -73.45508,70.8498 -73.45508,124.42773 0,78.46818 53.45896,126.24609 138.38867,126.24609 93.91574,0 145.77149,-47.77792 145.77149,-126.24609 0,-53.57793 -29.66226,-100.22281 -73.45508,-124.42773 z"
       transform="scale(0.26458334)" />
    <path
       style="fill:#c80000;stroke:none;stroke-width:0.264583px;stroke-linecap:butt;stroke-linejoin:miter;stroke-opacity:1;fill-opacity:1"
       d="M 68.036131,135.35812 35.593098,93.612041 h 64.280474 z"
       id="path4320"
       sodipodi:nodetypes="cccc" />
    <rect
       style="fill:#ffd719;fill-opacity:1;stroke:none;stroke-width:0.499999;stroke-linejoin:round;stroke-opacity:1"
       id="rect4967"
       width="46.017059"
       height="6.0797119"
       x="44.709187"
       y="40.857971"
       ry="0" />
    <path
       id="path5316"
       style="fill:#ffd719;fill-opacity:1;stroke:none;stroke-width:0.264583px;stroke-linecap:butt;stroke-linejoin:miter;stroke-opacity:1"
       d="m 67.203135,7.9655248 c 0,0 -6.602828,14.0982522 -9.757026,18.0469612 -2.942458,3.68363 -5.093894,4.842028 -9.671246,-0.05788 -3.486034,-3.731684 -7.511799,-9.757545 -9.325529,-13.096358 l -0.834575,0.604614 c 1.678615,8.255682 1.538192,10.401346 7.125663,24.70857 h 45.985826 c 5.587471,-14.307224 5.447054,-16.452888 7.125663,-24.70857 l -0.834573,-0.604614 c -1.813732,3.338813 -5.839494,9.364674 -9.32553,13.096358 -4.57735,4.899906 -6.728786,3.741508 -9.671244,0.05788 C 74.866363,22.063777 68.263019,7.9655248 68.263019,7.9655248 l -0.468625,-1.916997 z"
       sodipodi:nodetypes="cssccccccssccc" />
    <ellipse
       style="fill:#ffd719;fill-opacity:1;stroke:none;stroke-width:0.499999;stroke-linejoin:round;stroke-opacity:1"
       id="path9445"
       cx="37.69117"
       cy="9.4695654"
       rx="3.1229417"
       ry="2.8495045" />
    <ellipse
       style="display:inline;fill:#ffd719;fill-opacity:1;stroke:none;stroke-width:0.499999;stroke-linejoin:round;stroke-opacity:1"
       id="path9445-6"
       cx="97.919342"
       cy="9.4407825"
       rx="3.1229417"
       ry="2.8495045" />
    <ellipse
       style="fill:#ffd719;fill-opacity:1;stroke:none;stroke-width:0.499999;stroke-linejoin:round;stroke-opacity:1"
       id="path9571"
       cx="67.733337"
       cy="3.5978594"
       rx="4.317431"
       ry="3.5402935" />
    <path
       style="fill:#ffd719;stroke:none;stroke-width:0.264583px;stroke-linecap:butt;stroke-linejoin:miter;stroke-opacity:1;fill-opacity:1"
       d="m 53.493247,14.208315 c 0,0 -4.342326,6.053356 -4.777958,6.677626 -0.353633,0.506764 -0.335586,1.44407 -0.115128,1.79893 0.550369,0.885904 1.200046,1.357697 1.99245,1.951156 1.200555,0.899138 3.145129,1.06057 4.132894,0.246217 0.769652,-0.634531 1.498384,-1.516292 2.451951,-2.672291 0.30222,-0.366378 1.047482,-1.106959 0.259045,-2.273847 l -3.597859,-5.324832 z"
       id="path9688"
       sodipodi:nodetypes="csssssscc" />
    <ellipse
       style="fill:#ffd719;fill-opacity:1;stroke:none;stroke-width:0.499999;stroke-linejoin:round;stroke-opacity:1"
       id="path13887"
       cx="53.500443"
       cy="12.819539"
       rx="2.6408286"
       ry="2.2666512" />
    <path
       style="display:inline;fill:#ffd719;stroke:none;stroke-width:0.264583px;stroke-linecap:butt;stroke-linejoin:miter;stroke-opacity:1;fill-opacity:1"
       d="m 81.973424,14.335618 c 0,0 4.342326,6.053356 4.777958,6.677626 0.353633,0.506764 0.335586,1.44407 0.115128,1.79893 -0.550369,0.885904 -1.200046,1.357697 -1.99245,1.951156 -1.200555,0.899138 -3.145129,1.06057 -4.132894,0.246217 -0.769652,-0.634531 -1.498384,-1.516292 -2.451951,-2.672291 -0.30222,-0.366378 -1.047482,-1.106959 -0.259045,-2.273847 l 3.597859,-5.324832 z"
       id="path9688-7"
       sodipodi:nodetypes="csssssscc" />
    <ellipse
       style="display:inline;fill:#ffd719;fill-opacity:1;stroke:none;stroke-width:0.499999;stroke-linejoin:round;stroke-opacity:1"
       id="path13887-7"
       cx="-81.966225"
       cy="12.946843"
       rx="2.6408286"
       ry="2.2666512"
       transform="scale(-1,1)" />
    <path
       id="rect15930"
       style="fill:#fffdff;fill-opacity:1;stroke:none;stroke-width:0.499999;stroke-linejoin:round;stroke-opacity:1"
       d="m 64.998876,53.190554 v 9.498645 H 55.500748 V 68.1576 h 9.498128 v 9.498645 h 5.468917 V 68.1576 h 9.498129 v -5.468401 h -9.498129 v -9.498645 z" />
    <path
       id="rect15930-6"
       style="display:inline;fill:#fffdff;fill-opacity:1;stroke:none;stroke-width:0.499999;stroke-linejoin:round;stroke-opacity:1"
       d="m 64.998876,82.45945 v 9.498645 h -9.498128 v 5.468401 h 9.498128 v 9.498654 h 5.468917 v -9.498654 h 9.498129 V 91.958095 H 70.467793 V 82.45945 Z" />
  </g>
  <g
     inkscape:groupmode="layer"
     id="layer2"
     inkscape:label="Warstwa 2" />
</svg>
