<?xml version="1.0" encoding="UTF-8" standalone="no"?>
<!-- Created with Inkscape (http://www.inkscape.org/) -->

<svg
   width="512"
   height="512"
   viewBox="0 0 135.46667 135.46667"
   version="1.1"
   id="svg5"
   inkscape:version="1.1 (c68e22c387, 2021-05-23)"
   sodipodi:docname="gexplorer_gray.svg"
   inkscape:export-filename="C:\Users\super\Downloads\gexplorer\gexplorer_logo.png"
   inkscape:export-xdpi="384"
   inkscape:export-ydpi="384"
   xmlns:inkscape="http://www.inkscape.org/namespaces/inkscape"
   xmlns:sodipodi="http://sodipodi.sourceforge.net/DTD/sodipodi-0.dtd"
   xmlns="http://www.w3.org/2000/svg"
   xmlns:svg="http://www.w3.org/2000/svg">
  <sodipodi:namedview
     id="namedview7"
     pagecolor="#505050"
     bordercolor="#eeeeee"
     borderopacity="1"
     inkscape:pageshadow="0"
     inkscape:pageopacity="0"
     inkscape:pagecheckerboard="0"
     inkscape:document-units="px"
     showgrid="false"
     inkscape:object-paths="false"
     inkscape:snap-global="true"
     inkscape:snap-smooth-nodes="false"
     inkscape:zoom="0.8125"
     inkscape:cx="59.692308"
     inkscape:cy="203.69231"
     inkscape:window-width="1920"
     inkscape:window-height="1017"
     inkscape:window-x="-8"
     inkscape:window-y="-8"
     inkscape:window-maximized="1"
     inkscape:current-layer="layer1" />
  <defs
     id="defs2" />
  <g
     inkscape:label="Warstwa 1"
     inkscape:groupmode="layer"
     id="layer1"
     style="display:inline">
    <path
       id="path1298"
       style="fill:#808080;stroke-width:2.09762;stroke-linejoin:round;fill-opacity:1"
       d="M 187.375 155.69141 C 143.58218 179.89632 113.91992 226.54121 113.91992 280.11914 C 113.91992 309.18838 121.27265 334.03198 134.82812 353.80859 L 134.52539 353.80859 L 257.14453 511.58984 L 377.47461 353.80859 L 377.21094 353.80859 C 390.94627 334.03197 398.08008 309.1884 398.08008 280.11914 C 398.08008 226.54121 368.41782 179.89633 324.625 155.69141 L 187.375 155.69141 z M 245.66406 201.03516 L 266.33398 201.03516 L 266.33398 236.93555 L 302.23438 236.93555 L 302.23438 257.60352 L 266.33398 257.60352 L 266.33398 293.50391 L 245.66406 293.50391 L 245.66406 257.60352 L 209.76562 257.60352 L 209.76562 236.93555 L 245.66406 236.93555 L 245.66406 201.03516 z M 245.66406 311.6582 L 266.33398 311.6582 L 266.33398 347.55859 L 302.23438 347.55859 L 302.23438 368.22656 L 266.33398 368.22656 L 266.33398 404.12695 L 245.66406 404.12695 L 245.66406 368.22656 L 209.76562 368.22656 L 209.76562 347.55859 L 245.66406 347.55859 L 245.66406 311.6582 z "
       transform="scale(0.26458334)" />
    <path
       id="rect4967"
       style="fill:#808080;fill-opacity:1;stroke:none;stroke-width:1.88976;stroke-linejoin:round;stroke-opacity:1"
       d="M 256 0.21679688 A 16.317849 13.380636 0 0 0 239.68164 13.597656 A 16.317849 13.380636 0 0 0 254.96875 26.949219 L 253.99609 30.105469 C 253.99609 30.105469 229.04052 83.390199 217.11914 98.314453 C 205.99804 112.23683 197.86663 116.61504 180.56641 98.095703 C 167.39084 83.991701 152.17535 61.216792 145.32031 48.597656 L 142.16602 50.882812 C 148.51039 82.085389 147.97966 90.194985 169.09766 144.26953 L 342.90234 144.26953 C 364.02034 90.194985 363.48964 82.085389 369.83398 50.882812 L 366.67969 48.597656 C 359.82464 61.216792 344.60916 83.991701 331.43359 98.095703 C 314.13337 116.61503 306.00196 112.23683 294.88086 98.314453 C 282.95947 83.390199 258.00195 30.105469 258.00195 30.105469 L 257.22852 26.939453 A 16.317849 13.380636 0 0 0 272.31836 13.597656 A 16.317849 13.380636 0 0 0 256 0.21679688 z M 370.08789 24.912109 A 11.803244 10.76978 0 0 0 358.28516 35.681641 A 11.803244 10.76978 0 0 0 370.08789 46.451172 A 11.803244 10.76978 0 0 0 381.89258 35.681641 A 11.803244 10.76978 0 0 0 370.08789 24.912109 z M 142.45508 25.021484 A 11.803244 10.76978 0 0 0 130.65234 35.791016 A 11.803244 10.76978 0 0 0 142.45508 46.560547 A 11.803244 10.76978 0 0 0 154.25781 35.791016 A 11.803244 10.76978 0 0 0 142.45508 25.021484 z M 202.20703 39.884766 A 9.9810843 8.5668703 0 0 0 192.22461 48.451172 A 9.9810843 8.5668703 0 0 0 199.96094 56.794922 C 196.6744 61.377438 185.5505 76.891083 184.12109 78.939453 C 182.78453 80.854782 182.85232 84.397078 183.68555 85.738281 C 185.76568 89.08658 188.22188 90.870287 191.2168 93.113281 C 195.75433 96.511598 203.10265 97.120838 206.83594 94.042969 C 209.74486 91.644741 212.49948 88.312489 216.10352 83.943359 C 217.24576 82.558624 220.06195 79.759895 217.08203 75.349609 L 204.5332 56.777344 A 9.9810843 8.5668703 0 0 0 212.1875 48.451172 A 9.9810843 8.5668703 0 0 0 202.20703 39.884766 z M 309.79297 40.365234 A -9.9810843 8.5668703 0 0 0 299.8125 48.933594 A -9.9810843 8.5668703 0 0 0 308.2168 56.146484 L 294.91797 75.830078 C 291.93805 80.240363 294.75424 83.039092 295.89648 84.423828 C 299.50052 88.792958 302.25514 92.12521 305.16406 94.523438 C 308.89735 97.601307 316.24567 96.992067 320.7832 93.59375 C 323.77812 91.350755 326.23432 89.567049 328.31445 86.21875 C 329.14768 84.877547 329.21547 81.33525 327.87891 79.419922 C 326.37551 77.265529 313.6729 59.552471 311.2832 56.220703 A -9.9810843 8.5668703 0 0 0 319.77539 48.933594 A -9.9810843 8.5668703 0 0 0 309.79297 40.365234 z M 168.98047 154.42383 L 168.98047 177.40234 L 342.90234 177.40234 L 342.90234 154.42383 L 168.98047 154.42383 z "
       transform="scale(0.26458334)" />
  </g>
  <g
     inkscape:groupmode="layer"
     id="layer2"
     inkscape:label="Warstwa 2" />
</svg>
